<mxfile host="app.diagrams.net" agent="Mozilla/5.0 (Macintosh; Intel Mac OS X 10_15_7) AppleWebKit/605.1.15 (KHTML, like Gecko) Version/18.6 Safari/605.1.15" version="28.2.0">
  <diagram name="Page-1" id="kvTN7uRp1HEpMVs0bH21">
    <mxGraphModel dx="2280" dy="2146" grid="1" gridSize="10" guides="1" tooltips="1" connect="1" arrows="1" fold="1" page="1" pageScale="1" pageWidth="827" pageHeight="1169" math="0" shadow="0">
      <root>
        <mxCell id="0" />
        <mxCell id="1" parent="0" />
        <mxCell id="ttmXIjlmrhWEyVyxeyKQ-2" value="" style="rounded=0;whiteSpace=wrap;html=1;movable=0;resizable=0;rotatable=0;deletable=0;editable=0;locked=1;connectable=0;" vertex="1" parent="1">
          <mxGeometry x="120" y="120" width="600" height="2000" as="geometry" />
        </mxCell>
        <mxCell id="ttmXIjlmrhWEyVyxeyKQ-8" value="" style="endArrow=none;html=1;rounded=0;" edge="1" parent="1">
          <mxGeometry width="50" height="50" relative="1" as="geometry">
            <mxPoint x="120" y="400" as="sourcePoint" />
            <mxPoint x="720" y="400" as="targetPoint" />
          </mxGeometry>
        </mxCell>
        <mxCell id="ttmXIjlmrhWEyVyxeyKQ-9" value="" style="endArrow=none;html=1;rounded=0;" edge="1" parent="1">
          <mxGeometry width="50" height="50" relative="1" as="geometry">
            <mxPoint x="120" y="1119" as="sourcePoint" />
            <mxPoint x="720" y="1119" as="targetPoint" />
          </mxGeometry>
        </mxCell>
        <mxCell id="ttmXIjlmrhWEyVyxeyKQ-12" value="" style="rounded=0;whiteSpace=wrap;html=1;" vertex="1" parent="1">
          <mxGeometry x="150" y="760" width="315" height="347" as="geometry" />
        </mxCell>
        <mxCell id="ttmXIjlmrhWEyVyxeyKQ-13" value="" style="rounded=0;whiteSpace=wrap;html=1;" vertex="1" parent="1">
          <mxGeometry x="480" y="710" width="208" height="397" as="geometry" />
        </mxCell>
        <mxCell id="ttmXIjlmrhWEyVyxeyKQ-14" value="" style="endArrow=none;html=1;rounded=0;" edge="1" parent="1">
          <mxGeometry width="50" height="50" relative="1" as="geometry">
            <mxPoint x="40" y="2120" as="sourcePoint" />
            <mxPoint x="50" y="1120" as="targetPoint" />
          </mxGeometry>
        </mxCell>
        <mxCell id="ttmXIjlmrhWEyVyxeyKQ-15" value="" style="endArrow=none;html=1;rounded=0;" edge="1" parent="1">
          <mxGeometry width="50" height="50" relative="1" as="geometry">
            <mxPoint x="120" y="580" as="sourcePoint" />
            <mxPoint x="720" y="580" as="targetPoint" />
          </mxGeometry>
        </mxCell>
      </root>
    </mxGraphModel>
  </diagram>
</mxfile>
